<svg width="390" height="927" viewBox="0 0 390 927" fill="none" xmlns="http://www.w3.org/2000/svg">
<rect y="26.813" width="390" height="546" fill="url(#paint0_linear_156_39)"/>
<path d="M-29.0035 634.742C-54.6835 622.975 -53.433 598.608 -49.5976 587.896L-7.86316 451.822L450.979 592.551L409.244 728.625C406.414 739.646 393.787 760.523 365.926 755.869C331.099 750.051 327.231 765.887 318.243 776.911C309.255 787.934 297.252 798.033 271.68 779.247C246.108 760.461 219.094 748.528 190.417 765.672C167.476 779.387 150.241 776.452 144.147 774.582C138.052 772.713 122.135 765.48 110.828 741.261C96.6956 710.987 67.636 705.722 35.9284 706.941C4.22069 708.159 -0.0560168 693.067 -1.31798 678.9C-2.57995 664.732 3.09657 649.451 -29.0035 634.742Z" fill="#1D1534"/>
<path d="M470.65 457.158C500.894 471.207 499.675 497.751 495.285 509.267L447.714 655.874L-91.9652 480.759L-44.3938 334.151C-41.1859 322.252 -26.5872 300.049 6.14333 306.434C47.0565 314.416 51.4321 297.307 61.8634 285.693C72.2947 274.078 86.2718 263.614 116.461 285.321C146.65 307.028 178.46 321.321 211.925 303.945C238.696 290.045 258.944 294.056 266.112 296.382C273.281 298.708 292.026 307.349 305.535 334.32C322.422 368.033 356.564 375.142 393.747 375.295C430.929 375.449 436.1 392.126 437.724 407.653C439.349 423.179 432.846 439.597 470.65 457.158Z" fill="#1D1534"/>
<path d="M-190 2.81299C-87 40.9797 101.9 206.613 33.5 563.813" stroke="url(#paint1_linear_156_39)" stroke-opacity="0.2" stroke-width="6"/>
<path d="M1403.87 875.754C1509.95 891.644 1513.05 923.081 1501.34 936.813L1355.54 932.34L-190.562 932.34L-371 742.69C-363.393 728.532 -320.08 701.908 -207.679 708.67C-67.1781 717.123 -57.0423 696.774 -24.9362 682.779C7.16998 668.783 51.578 656.064 159.557 681.016C267.536 705.968 378.981 722.109 487.394 700.739C574.124 683.643 643.673 687.899 668.543 690.477C693.413 693.056 759.144 702.826 812.163 734.411C878.437 773.892 995.807 781.475 1121.56 780.756C1247.32 780.037 1269.34 799.644 1279.06 817.976C1288.78 836.308 1271.26 855.892 1403.87 875.754Z" fill="#F36622"/>
<defs>
<linearGradient id="paint0_linear_156_39" x1="167.51" y1="26.813" x2="167.51" y2="531.002" gradientUnits="userSpaceOnUse">
<stop stop-color="#EBF1FA"/>
<stop offset="1" stop-color="#3D308C"/>
</linearGradient>
<linearGradient id="paint1_linear_156_39" x1="-215" y1="-37.687" x2="141.5" y2="602.313" gradientUnits="userSpaceOnUse">
<stop stop-color="#343045"/>
<stop offset="0.151042" stop-color="#C0B7E8"/>
<stop offset="0.760417" stop-color="#8176AF"/>
<stop offset="0.973958" stop-color="#343045"/>
</linearGradient>
</defs>
</svg>
