<svg width="1440" height="1052" viewBox="0 0 1440 1052" fill="none" xmlns="http://www.w3.org/2000/svg">
<rect width="1440" height="300" fill="url(#paint0_linear_123_74)"/>
<rect y="300" width="1440" height="533" fill="#3D308C"/>
<path d="M1555.87 620.871C1661.95 654.475 1665.05 720.959 1653.34 750L1507.54 740.54L-38.5621 740.541L-219 339.466C-211.393 309.525 -168.08 253.22 -55.6794 267.52C84.8219 285.396 94.9577 242.361 127.064 212.764C159.17 183.167 203.578 156.267 311.557 209.037C419.536 261.807 530.981 295.94 639.394 250.747C726.124 214.593 795.673 223.592 820.543 229.046C845.413 234.499 911.144 255.161 964.163 321.957C1030.44 405.452 1147.81 421.489 1273.56 419.968C1399.32 418.448 1421.34 459.913 1431.06 498.682C1440.78 537.45 1423.26 578.866 1555.87 620.871Z" fill="#1D1534"/>
<path d="M93.1089 891.496C5.13705 884.296 -13.5537 838.495 -11.9025 816.494L-11.9025 541L1495.9 541V816.494C1497.55 838.495 1478.86 884.296 1390.89 891.496C1280.93 900.496 1283.9 931.997 1267.06 957.498C1250.22 982.998 1223.47 1008.5 1129.35 988.248C1035.24 967.998 943.107 961.248 872.769 1009.25C816.499 1047.65 762.028 1052 742 1052C721.972 1052 667.501 1047.65 611.231 1009.25C540.893 961.248 448.761 967.998 354.647 988.248C260.533 1008.5 233.784 982.998 216.943 957.498C200.101 931.997 203.074 900.496 93.1089 891.496Z" fill="#1D1534"/>
<defs>
<linearGradient id="paint0_linear_123_74" x1="618.5" y1="0" x2="618.5" y2="277.027" gradientUnits="userSpaceOnUse">
<stop stop-color="#EBF1FA"/>
<stop offset="1" stop-color="#3D308C"/>
</linearGradient>
</defs>
</svg>
