<svg width="390" height="2271" viewBox="0 0 390 2271" fill="none" xmlns="http://www.w3.org/2000/svg">
<rect y="424.813" width="395" height="223" fill="url(#paint0_linear_160_40)"/>
<path d="M-35 2.81311C68 40.9798 256.9 206.613 188.5 563.813" stroke="url(#paint1_linear_160_40)" stroke-opacity="0.2" stroke-width="6"/>
<rect y="1265.81" width="395" height="1209" fill="#F36622"/>
<path d="M-11.8911 1933.31C-99.8629 1926.11 -118.554 1880.31 -116.903 1858.31L-116.903 1582.81H1390.9V1858.31C1392.55 1880.31 1373.86 1926.11 1285.89 1933.31C1175.93 1942.31 1178.9 1973.81 1162.06 1999.31C1145.22 2024.81 1118.47 2050.31 1024.35 2030.06C930.239 2009.81 838.107 2003.06 767.769 2051.06C711.499 2089.46 657.028 2093.81 637 2093.81C616.972 2093.81 562.501 2089.46 506.231 2051.06C435.893 2003.06 343.761 2009.81 249.647 2030.06C155.533 2050.31 128.784 2024.81 111.943 1999.31C95.1014 1973.81 98.0737 1942.31 -11.8911 1933.31Z" fill="#1D1534"/>
<path d="M-343.891 1522.31C-431.863 1515.11 -450.554 1469.31 -448.903 1447.31V1171.81H1058.9V1447.31C1060.55 1469.31 1041.86 1515.11 953.891 1522.31C843.926 1531.31 846.898 1562.81 830.057 1588.31C813.216 1613.81 786.467 1639.31 692.353 1619.06C598.239 1598.81 506.107 1592.06 435.769 1640.06C379.499 1678.46 325.028 1682.81 305 1682.81C284.972 1682.81 230.501 1678.46 174.231 1640.06C103.893 1592.06 11.7606 1598.81 -82.3535 1619.06C-176.467 1639.31 -203.216 1613.81 -220.057 1588.31C-236.899 1562.81 -233.926 1531.31 -343.891 1522.31Z" fill="#1D1534"/>
<path d="M1580.87 1061.96C1686.95 1103.04 1690.05 1184.31 1678.34 1219.81L1532.54 1208.25L-13.5621 1208.25L-194 717.969C-186.393 681.369 -143.08 612.54 -30.6794 630.022C109.822 651.874 119.958 599.267 152.064 563.087C184.17 526.907 228.578 494.024 336.557 558.53C444.536 623.037 555.981 664.763 664.394 609.518C751.124 565.322 820.673 576.324 845.543 582.99C870.413 589.656 936.144 614.913 989.163 696.566C1055.44 798.632 1172.81 818.235 1298.56 816.377C1424.32 814.518 1446.34 865.206 1456.06 912.597C1465.78 959.988 1448.26 1010.62 1580.87 1061.96Z" fill="#1D1534"/>
<path d="M-104.807 552.813C-108.088 692.94 -70.7913 986.127 104.642 1037.87C280.075 1089.61 283.776 1299.39 263.697 1397.81" stroke="url(#paint2_linear_160_40)" stroke-width="6"/>
<path d="M1088.93 1123.73C987.042 1027.47 744.302 858.87 588.409 954.532C432.517 1050.19 274.221 912.481 214.559 831.666" stroke="url(#paint3_linear_160_40)" stroke-width="6"/>
<path d="M-198.21 1961.12C-61.2564 1931.29 214.887 1825.96 223.831 1643.28C232.774 1460.59 167.116 1403.49 267.5 1399.81" stroke="url(#paint4_linear_160_40)" stroke-width="6"/>
<defs>
<linearGradient id="paint0_linear_160_40" x1="169.658" y1="424.813" x2="169.658" y2="630.737" gradientUnits="userSpaceOnUse">
<stop stop-color="#EBF1FA"/>
<stop offset="1" stop-color="#3D308C"/>
</linearGradient>
<linearGradient id="paint1_linear_160_40" x1="-60" y1="-37.6869" x2="296.5" y2="602.313" gradientUnits="userSpaceOnUse">
<stop stop-color="#343045"/>
<stop offset="0.151042" stop-color="#C0B7E8"/>
<stop offset="0.760417" stop-color="#8176AF"/>
<stop offset="0.973958" stop-color="#343045"/>
</linearGradient>
<linearGradient id="paint2_linear_160_40" x1="-91.5" y1="592.313" x2="255" y2="1366.81" gradientUnits="userSpaceOnUse">
<stop offset="0.0104167" stop-color="#343045"/>
<stop offset="0.229167" stop-color="#C0B7E8"/>
<stop offset="0.776042" stop-color="#8176AF"/>
<stop offset="1" stop-color="#343045"/>
</linearGradient>
<linearGradient id="paint3_linear_160_40" x1="1050.68" y1="1107.17" x2="243.408" y2="845.962" gradientUnits="userSpaceOnUse">
<stop offset="0.0104167" stop-color="#343045"/>
<stop offset="0.229167" stop-color="#C0B7E8"/>
<stop offset="0.776042" stop-color="#8176AF"/>
<stop offset="1" stop-color="#343045"/>
</linearGradient>
<linearGradient id="paint4_linear_160_40" x1="-162.958" y1="1938.88" x2="508.085" y2="1419.64" gradientUnits="userSpaceOnUse">
<stop offset="0.0104167" stop-color="#343045"/>
<stop offset="0.229167" stop-color="#C0B7E8"/>
<stop offset="0.776042" stop-color="#8176AF"/>
<stop offset="1" stop-color="#343045"/>
</linearGradient>
</defs>
</svg>
